<svg width="100%" height="100%" viewBox="0 0 1200 800" fill="none" xmlns="http://www.w3.org/2000/svg">
  <g id="background-dots">
    <!-- Large decorative dots -->
    <circle cx="150" cy="80" r="8" fill="#000000" opacity="0.8"/>
    <circle cx="300" cy="160" r="8" fill="#26a69a" opacity="0.3"/>
    <circle cx="1000" cy="120" r="8" fill="#26a69a" opacity="0.3"/>
    <circle cx="100" cy="600" r="8" fill="#000000" opacity="0.6"/>
    <circle cx="1100" cy="160" r="8" fill="#26a69a" opacity="0.3"/>
    <circle cx="1050" cy="480" r="8" fill="#000000" opacity="0.4"/>
    <circle cx="50" cy="320" r="8" fill="#26a69a" opacity="0.3"/>
    
    <!-- Medium decorative dots -->
    <circle cx="200" cy="200" r="6" fill="#26a69a" opacity="0.4"/>
    <circle cx="800" cy="300" r="6" fill="#000000" opacity="0.5"/>
    <circle cx="950" cy="250" r="6" fill="#26a69a" opacity="0.4"/>
    <circle cx="150" cy="450" r="6" fill="#26a69a" opacity="0.4"/>
    <circle cx="1150" cy="400" r="6" fill="#000000" opacity="0.3"/>
    
    <!-- Small decorative dots -->
    <circle cx="250" cy="100" r="4" fill="#26a69a" opacity="0.2"/>
    <circle cx="400" cy="250" r="4" fill="#000000" opacity="0.3"/>
    <circle cx="750" cy="150" r="4" fill="#26a69a" opacity="0.2"/>
    <circle cx="600" cy="400" r="4" fill="#26a69a" opacity="0.2"/>
    <circle cx="850" cy="500" r="4" fill="#000000" opacity="0.2"/>
    <circle cx="300" cy="550" r="4" fill="#26a69a" opacity="0.2"/>
    <circle cx="1000" cy="600" r="4" fill="#000000" opacity="0.2"/>
    
    <!-- Extra small dots for texture -->
    <circle cx="350" cy="50" r="2" fill="#26a69a" opacity="0.1"/>
    <circle cx="500" cy="180" r="2" fill="#000000" opacity="0.2"/>
    <circle cx="650" cy="80" r="2" fill="#26a69a" opacity="0.1"/>
    <circle cx="450" cy="350" r="2" fill="#26a69a" opacity="0.1"/>
    <circle cx="700" cy="450" r="2" fill="#000000" opacity="0.1"/>
    <circle cx="200" cy="650" r="2" fill="#26a69a" opacity="0.1"/>
    <circle cx="900" cy="700" r="2" fill="#000000" opacity="0.1"/>
    <circle cx="1100" cy="550" r="2" fill="#26a69a" opacity="0.1"/>
  </g>
</svg>
