<svg width="200" height="150" viewBox="0 0 200 150" fill="none" xmlns="http://www.w3.org/2000/svg">
  <g id="desk-scene">
    <!-- Desk surface -->
    <rect x="20" y="80" width="120" height="6" rx="3" fill="#8d6e63"/>
    
    <!-- Desk legs -->
    <rect x="25" y="86" width="4" height="40" fill="#6d4c41"/>
    <rect x="131" y="86" width="4" height="40" fill="#6d4c41"/>
    
    <!-- Desk shadow -->
    <ellipse cx="80" cy="128" rx="60" ry="8" fill="#000000" opacity="0.1"/>
    
    <!-- Chair -->
    <g transform="translate(150, 90)">
      <!-- Chair back -->
      <rect x="0" y="0" width="25" height="35" rx="4" fill="#263238"/>
      <rect x="2" y="2" width="21" height="31" rx="3" fill="#37474f"/>
      
      <!-- Chair seat -->
      <rect x="-2" y="30" width="30" height="6" rx="3" fill="#37474f"/>
      
      <!-- Chair base/leg -->
      <rect x="12" y="36" width="6" height="25" fill="#455a64"/>
      <ellipse cx="15" cy="61" rx="8" ry="3" fill="#455a64"/>
    </g>
    
    <!-- Books on desk -->
    <g transform="translate(30, 60)">
      <rect x="0" y="0" width="20" height="3" fill="#e53935"/>
      <rect x="0" y="3" width="20" height="3" fill="#1e88e5"/>
      <rect x="0" y="6" width="20" height="3" fill="#43a047"/>
      <rect x="0" y="9" width="20" height="3" fill="#fb8c00"/>
    </g>
    
    <!-- Laptop -->
    <g transform="translate(60, 65)">
      <!-- Laptop screen -->
      <rect x="0" y="0" width="30" height="20" rx="2" fill="#263238"/>
      <rect x="2" y="2" width="26" height="16" rx="1" fill="#1a1a1a"/>
      <rect x="4" y="4" width="22" height="12" fill="#0d47a1"/>
      
      <!-- Laptop keyboard -->
      <rect x="-2" y="18" width="34" height="4" rx="2" fill="#455a64"/>
      <rect x="0" y="19" width="30" height="2" fill="#37474f"/>
    </g>
    
    <!-- Pen holder -->
    <g transform="translate(100, 70)">
      <rect x="0" y="0" width="12" height="15" fill="#795548"/>
      <rect x="1" y="1" width="10" height="14" fill="#8d6e63"/>
      
      <!-- Pens -->
      <line x1="3" y1="15" x2="3" y2="5" stroke="#2196f3" stroke-width="1"/>
      <line x1="6" y1="15" x2="6" y2="3" stroke="#f44336" stroke-width="1"/>
      <line x1="9" y1="15" x2="9" y2="7" stroke="#4caf50" stroke-width="1"/>
    </g>
    
    <!-- Decorative dots around scene -->
    <circle cx="10" cy="30" r="2" fill="#26a69a" opacity="0.3"/>
    <circle cx="170" cy="40" r="1.5" fill="#26a69a" opacity="0.4"/>
    <circle cx="180" cy="20" r="1" fill="#26a69a" opacity="0.5"/>
    <circle cx="15" cy="60" r="1" fill="#000000" opacity="0.6"/>
    <circle cx="160" cy="70" r="2" fill="#000000" opacity="0.4"/>
  </g>
</svg>
